<?xml version="1.0" standalone="no"?>
<!DOCTYPE svg PUBLIC "-//W3C//DTD SVG 20010904//EN"
 "http://www.w3.org/TR/2001/REC-SVG-20010904/DTD/svg10.dtd">
<svg version="1.0" xmlns="http://www.w3.org/2000/svg"
 width="500.000000pt" height="500.000000pt" viewBox="0 0 500.000000 500.000000"
 preserveAspectRatio="xMidYMid meet">
<metadata>
Created by potrace 1.14, written by Peter Selinger 2001-2017
</metadata>
<g transform="translate(0.000000,500.000000) scale(0.100000,-0.100000)"
fill="#000000" stroke="none">
<path d="M0 2500 l0 -2500 2500 0 2500 0 0 2500 0 2500 -2500 0 -2500 0 0
-2500z m2568 2168 l3 -158 104 0 105 0 0 55 0 55 220 0 220 0 0 -55 0 -55 49
0 50 0 3 -52 3 -53 48 -3 47 -3 0 -105 0 -104 110 0 110 0 0 -110 0 -110 60 0
60 0 0 -165 0 -165 50 0 50 0 0 -50 0 -50 55 0 55 0 0 -60 0 -60 110 0 110 0
0 -110 0 -110 50 0 50 0 0 -970 0 -970 -50 0 -50 0 0 -55 0 -55 -54 0 -55 0
-3 -52 -3 -53 -52 -3 -53 -3 0 -50 0 -49 -55 0 -55 0 0 -55 0 -55 -49 0 -50 0
-3 -52 -3 -53 -57 -3 -58 -3 0 -54 0 -55 -110 0 -110 0 0 -50 0 -50 -50 0 -50
0 0 -60 0 -60 -110 0 -110 0 0 -50 0 -50 -160 0 -160 0 0 -60 0 -60 -215 0
-215 0 0 60 0 60 -110 0 -110 0 0 50 0 50 -105 0 -104 0 -3 58 -3 57 -107 3
-108 3 0 49 0 50 -110 0 -110 0 0 55 0 55 -50 0 -50 0 0 55 0 55 -110 0 -110
0 0 55 0 55 -110 0 -110 0 0 50 0 50 -54 0 -55 0 -3 53 -3 52 -47 3 -48 3 0
975 0 974 50 0 50 0 0 50 0 50 55 0 55 0 0 385 0 385 160 0 160 0 0 215 0 214
58 3 57 3 3 53 3 52 270 0 269 0 0 104 0 105 48 3 47 3 3 53 3 52 272 -2 272
-3 3 -157z"/>
<path d="M2130 4670 l0 -50 -55 0 -55 0 0 -165 0 -165 -110 0 -109 0 -3 58 -3
57 -155 0 -155 0 -3 -57 -3 -58 -49 0 -50 0 0 -160 0 -160 50 0 50 0 0 -55 0
-55 -215 0 -215 0 0 -220 0 -220 105 0 105 0 0 -50 0 -50 -50 0 -50 0 0 -60 0
-60 -55 0 -55 0 0 -50 0 -50 -55 0 -55 0 0 -60 0 -60 -55 0 -55 0 0 -860 0
-860 55 0 54 0 3 -107 3 -108 108 -3 107 -3 0 -49 0 -50 110 0 110 0 0 -55 0
-55 100 0 100 0 0 -50 0 -49 58 -3 57 -3 3 -57 3 -58 159 0 160 0 0 -50 0 -50
55 0 54 0 3 -57 3 -58 158 2 157 1 0 -54 0 -54 165 0 165 0 0 50 0 50 110 0
110 0 0 60 0 60 110 0 110 0 0 50 0 50 50 0 49 0 3 58 3 57 108 3 107 3 0 49
0 50 50 0 50 0 0 55 0 55 55 0 55 0 0 49 0 50 53 3 52 3 3 52 3 53 55 0 54 0
0 55 0 55 110 0 110 0 0 970 0 969 -57 3 -58 3 -3 58 -3 57 -104 0 -105 0 0
49 0 50 -52 3 -53 3 -3 52 -3 52 -52 3 -52 3 -3 218 -2 217 -50 0 -50 0 0 50
0 50 -110 0 -110 0 0 110 0 110 -50 0 -50 0 0 110 0 110 -165 0 -165 0 0 -50
0 -50 -160 0 -160 0 0 50 0 50 -60 0 -60 0 0 105 0 105 -160 0 -160 0 0 -50z
m220 -110 l0 -60 50 0 50 0 0 -105 0 -105 280 0 280 0 0 55 0 55 45 0 44 0 3
-107 3 -108 58 -3 57 -3 0 -54 0 -55 50 0 50 0 0 -50 0 -50 -50 0 -50 0 0
-105 0 -105 -55 0 -54 0 -3 158 -3 157 -217 3 -218 2 0 -110 0 -110 -105 0
-105 0 0 55 0 55 -165 0 -165 0 0 -55 0 -55 -110 0 -110 0 0 -50 0 -50 -55 0
-55 0 0 -115 0 -115 55 0 55 0 0 -55 0 -55 -55 0 -55 0 0 -105 0 -105 -160 0
-160 0 0 166 0 165 -52 -3 -53 -3 -3 -57 -3 -58 -49 0 -49 0 -3 58 -3 57 -52
3 -53 3 0 105 0 104 215 0 215 0 -2 163 -3 162 -52 3 -53 3 0 49 0 49 53 3 52
3 3 53 3 52 49 0 49 0 3 -52 3 -53 163 -3 162 -2 0 55 0 55 60 0 60 0 0 104 0
105 48 3 47 3 3 58 3 57 54 0 55 0 0 -60z m650 -700 l0 -110 50 0 49 0 3 -57
3 -58 108 -3 107 -3 0 61 0 60 50 0 49 0 3 -57 3 -58 58 -3 57 -3 0 -44 0 -45
-60 0 -61 0 3 -112 3 -113 58 -3 57 -3 0 -54 0 -55 105 0 105 0 0 -50 0 -50
-105 0 -105 0 0 -105 0 -104 -57 -3 -58 -3 -3 -52 -3 -53 -50 0 -49 0 0 -55 0
-55 -50 0 -50 0 0 -50 0 -49 -107 -3 -108 -3 -3 -57 -3 -58 -104 0 -105 0 0
105 0 104 158 3 157 3 3 58 3 57 54 0 55 0 0 270 0 270 -55 0 -55 0 0 50 0 50
-275 0 -275 0 0 -50 0 -50 -55 0 -55 0 0 -55 0 -55 -49 0 -50 0 -3 -52 -3 -53
-52 -3 -52 -3 -3 53 -3 53 -47 3 -48 3 0 49 0 49 48 3 47 3 3 163 2 162 -50 0
-50 0 0 55 0 55 50 0 50 0 0 50 0 50 55 0 55 0 0 -50 0 -50 50 0 49 0 3 -57 3
-58 55 0 55 0 3 58 3 57 109 0 110 0 0 110 0 110 105 0 105 0 0 -110z m538 53
l3 -53 -110 0 -111 0 0 48 c0 27 3 52 7 56 4 4 52 5 107 4 l101 -3 3 -52z
m-1528 -708 l0 -105 110 0 110 0 0 -60 0 -60 165 0 165 0 0 -45 0 -45 -55 0
-55 0 0 -165 0 -165 111 0 110 0 -3 -52 -3 -53 -157 -3 -158 -3 0 -110 0 -110
-107 3 -108 3 -3 58 -3 57 -164 0 -165 0 0 50 0 50 -110 0 -110 0 0 60 0 60
-50 0 -50 0 0 210 0 210 -50 0 -50 0 0 55 0 55 100 0 100 0 0 -60 0 -60 60 0
60 0 0 60 0 60 110 0 110 0 0 105 0 105 45 0 45 0 0 -105z"/>
<path d="M1800 2675 l0 -115 55 0 55 0 0 -55 0 -55 115 0 115 0 -2 168 -3 167
-167 3 -168 2 0 -115z"/>
</g>
</svg>
